<svg width="50" height="50" viewBox="0 0 50 50" fill="none" xmlns="http://www.w3.org/2000/svg">
<path d="M41.6667 8.33056L26.0528 16.625C23.5556 16.3361 21.0361 17.1556 19.1806 19.0111C17.3417 20.8528 16.5417 23.3472 16.7861 25.7556L8.33333 41.6667L24.2333 33.2167C26.6889 33.4639 29.1556 32.6472 30.9889 30.8139C32.75 29.0528 33.6806 26.5806 33.375 23.9444L41.6667 8.33056ZM25.0833 28.3861C23.1694 28.3861 21.6111 26.8333 21.6111 24.9167C21.6083 22.9972 23.1639 21.4417 25.0833 21.4444C27 21.4444 28.5556 23 28.5556 24.9167C28.5528 26.8306 27 28.3861 25.0833 28.3861ZM25 44.4444C23.4639 44.4444 22.2222 45.6889 22.2222 47.2222C22.2222 48.7556 23.4639 50 25 50C26.5361 50 27.7778 48.7556 27.7778 47.2222C27.7778 45.6889 26.5361 44.4444 25 44.4444ZM2.77778 22.2222C1.24167 22.2222 0 23.4667 0 25C0 26.5333 1.24167 27.7778 2.77778 27.7778C4.31389 27.7778 5.55556 26.5333 5.55556 25C5.55556 23.4667 4.31389 22.2222 2.77778 22.2222ZM25 0C23.4639 0 22.2222 1.24444 22.2222 2.77778C22.2222 4.31111 23.4639 5.55556 25 5.55556C26.5361 5.55556 27.7778 4.31111 27.7778 2.77778C27.7778 1.24444 26.5361 0 25 0ZM47.2222 22.2222C45.6861 22.2222 44.4444 23.4667 44.4444 25C44.4444 26.5333 45.6861 27.7778 47.2222 27.7778C48.7583 27.7778 50 26.5333 50 25C50 23.4667 48.7583 22.2222 47.2222 22.2222Z" fill="#6E33A6"/>
</svg>
