<svg width="139" height="98" viewBox="0 0 139 98" fill="none" xmlns="http://www.w3.org/2000/svg">
<path d="M94.978 45.3536C97.4834 43.3825 100.667 42.7164 103.745 42.0725C105.516 41.7025 107.347 41.3189 108.992 40.6935C113.901 38.826 117.695 36.7488 120.929 34.1559C121.852 33.4158 122.828 32.4254 123.858 31.3781C127.035 28.1525 131.386 23.7341 135.708 27.3594C138.179 29.4292 139.371 32.4241 138.898 35.3722C138.455 38.1266 136.833 41.2251 134.448 43.8722C132.484 46.053 130.107 47.865 127.608 49.1257C128.365 49.4723 129.078 49.9188 129.685 50.5208C130.964 51.7851 131.611 53.4688 131.611 55.5238C131.611 61.3114 123.999 64.03 120.117 64.141C119.641 64.1546 119.184 64.1608 118.741 64.1608C116.662 64.1608 114.928 64.0103 113.371 63.7056C113.497 64.2002 113.593 64.7134 113.608 65.2672C113.663 67.3641 112.778 69.3081 110.975 71.0461C109.508 72.461 107.727 73 105.899 73C102.141 73 98.1886 70.718 96.3749 69.0861C92.7057 65.7865 91.0116 60.6909 90.8625 60.2247C89.5975 57.1002 88.8774 50.1519 94.978 45.3536ZM98.8507 66.3329C100.569 67.881 105.939 70.7612 108.41 68.3806C109.442 67.3851 109.932 66.4045 109.911 65.3832C109.873 63.5156 108.162 61.975 108.152 61.9676C108.084 61.9084 108.027 61.8418 107.971 61.7752C106.645 61.0857 105.292 60.2469 103.76 59.2428C102.906 58.6828 102.665 57.5369 103.225 56.6821C103.785 55.826 104.932 55.5855 105.785 56.1467C110.776 59.4143 113.3 60.6305 120.012 60.4405C122.724 60.3628 127.912 58.388 127.912 55.5226C127.912 54.4778 127.641 53.7007 127.085 53.1506C125.61 51.6926 122.258 51.7333 120.46 51.7505C120.147 51.7542 119.867 51.7555 119.625 51.7542C119.565 51.753 119.509 51.7407 119.451 51.7345C118.63 51.906 117.839 52.0614 117.129 52.1872L116.347 52.3291C115.504 52.4832 115.388 52.5017 114.057 52.6399C113.043 52.746 112.131 52.0083 112.026 50.9919C111.92 49.9755 112.657 49.0652 113.673 48.9604C114.901 48.8321 114.931 48.8272 115.682 48.689L116.483 48.5435C118.691 48.1512 121.575 47.569 124.307 46.5489C126.98 45.551 129.608 43.7205 131.702 41.3941C133.595 39.2935 134.92 36.8228 135.248 34.7838C135.517 33.1112 134.821 31.4398 133.336 30.1952C131.864 28.9642 130.113 30.3 126.496 33.9746C125.434 35.0527 124.337 36.1678 123.243 37.0436C119.699 39.8855 115.588 42.1441 110.307 44.1534C108.391 44.8824 106.415 45.2957 104.504 45.6953C101.72 46.2775 99.0899 46.8277 97.2651 48.2634C91.8094 52.5548 94.2037 58.6236 94.3221 58.9135C94.3332 58.9406 94.3369 58.9677 94.3467 58.9949C94.3566 59.022 94.3714 59.0454 94.38 59.0726C94.3936 59.117 95.8497 63.6353 98.8507 66.3329Z" fill="#00C2FF"/>
<path d="M44.022 45.3536C41.5166 43.3825 38.3332 42.7164 35.2545 42.0725C33.484 41.7025 31.6531 41.3189 30.0083 40.6935C25.0988 38.826 21.305 36.7488 18.071 34.1559C17.1475 33.4158 16.1723 32.4254 15.1415 31.3781C11.9655 28.1525 7.61439 23.7341 3.29169 27.3594C0.820874 29.4292 -0.371383 32.4241 0.102068 35.3722C0.544694 38.1266 2.16725 41.2251 4.55176 43.8722C6.51584 46.053 8.89295 47.865 11.3921 49.1257C10.6351 49.4723 9.92246 49.9188 9.31462 50.5208C8.03606 51.7851 7.38876 53.4688 7.38876 55.5238C7.38876 61.3114 15.001 64.03 18.8835 64.141C19.3594 64.1546 19.8156 64.1608 20.2595 64.1608C22.3382 64.1608 24.0717 64.0103 25.6289 63.7056C25.5032 64.2002 25.407 64.7134 25.3922 65.2672C25.3367 67.3641 26.222 69.3081 28.0245 71.0461C29.4917 72.461 31.2733 73 33.1006 73C36.8586 73 40.8114 70.718 42.6251 69.0861C46.2943 65.7865 47.9884 60.6909 48.1375 60.2247C49.4025 57.1002 50.1226 50.1519 44.022 45.3536ZM40.1493 66.3329C38.4306 67.881 33.0611 70.7612 30.5903 68.3806C29.5583 67.3851 29.0676 66.4045 29.0886 65.3832C29.1268 63.5156 30.8381 61.975 30.848 61.9676C30.9158 61.9084 30.9725 61.8418 31.0292 61.7752C32.3546 61.0857 33.7084 60.2469 35.2397 59.2428C36.0942 58.6828 36.3346 57.5369 35.7748 56.6821C35.2151 55.826 34.0684 55.5855 33.2152 56.1467C28.2243 59.4143 25.7004 60.6305 18.9883 60.4405C16.2758 60.3628 11.0876 58.388 11.0876 55.5226C11.0876 54.4778 11.3588 53.7007 11.9149 53.1506C13.3895 51.6926 16.7419 51.7333 18.5395 51.7505C18.8527 51.7542 19.1325 51.7555 19.3754 51.7542C19.4346 51.753 19.4913 51.7407 19.5493 51.7345C20.3704 51.906 21.1607 52.0614 21.8709 52.1872L22.6526 52.3291C23.4959 52.4832 23.6118 52.5017 24.9434 52.6399C25.9569 52.746 26.8693 52.0083 26.9741 50.9919C27.0801 49.9755 26.3428 49.0652 25.3269 48.9604C24.0988 48.8321 24.0693 48.8272 23.3184 48.689L22.517 48.5435C20.3088 48.1512 17.4249 47.569 14.6927 46.5489C12.0197 45.551 9.3923 43.7205 7.29753 41.3941C5.40496 39.2935 4.07954 36.8228 3.75158 34.7838C3.4828 33.1112 4.17941 31.4398 5.66388 30.1952C7.13601 28.9642 8.88679 30.3 12.5042 33.9746C13.5658 35.0527 14.6631 36.1678 15.7568 37.0436C19.3015 39.8855 23.4121 42.1441 28.6928 44.1534C30.6088 44.8824 32.5852 45.2957 34.4963 45.6953C37.2802 46.2775 39.9101 46.8277 41.7349 48.2634C47.1906 52.5548 44.7963 58.6236 44.6779 58.9135C44.6668 58.9406 44.6631 58.9677 44.6533 58.9949C44.6434 59.022 44.6286 59.0454 44.62 59.0726C44.6064 59.117 43.1503 63.6353 40.1493 66.3329Z" fill="#00C2FF"/>
<path d="M95.3977 66.8C95.3977 71.5333 94.5643 74.7667 92.8977 76.5C91.231 78.1667 88.0643 79 83.3977 79H71.8977V92H65.8977V79H53.0977C48.0977 79 44.7977 78.0333 43.1977 76.1C41.731 74.4333 40.9977 71.0667 40.9977 66L49.3977 64.3V72.8H65.8977V56.7H54.9977C50.331 56.7 47.131 55.8333 45.3977 54.1C43.731 52.3 42.8977 49.0667 42.8977 44.4V39.6C42.8977 34.8667 43.731 31.6667 45.3977 30C47.131 28.2667 50.331 27.4 54.9977 27.4H65.8977V17.2H71.8977V27.4H82.4977C86.5643 27.4 89.531 28.0333 91.3977 29.3C93.531 30.8333 94.5977 33.5667 94.5977 37.5V39.8L86.7977 41.7V33.7H71.8977V49.4H83.3977C88.131 49.4 91.2977 50.2667 92.8977 52C94.5643 53.6667 95.3977 56.8667 95.3977 61.6V66.8ZM65.8977 49.4V33.7H50.7977V49.4H65.8977ZM87.4977 72.8V56.7H71.8977V72.8H87.4977Z" fill="black"/>
</svg>
