<svg width="174" height="253" viewBox="0 0 174 253" fill="none" xmlns="http://www.w3.org/2000/svg">
<path d="M121.634 73.7447C121.634 106.741 94.9587 133.479 62.0671 133.479C29.1754 133.479 2.5 106.741 2.5 73.7447C2.5 40.7481 29.1754 14.0106 62.0671 14.0106C94.9587 14.0106 121.634 40.7481 121.634 73.7447Z" fill="white" stroke="black" stroke-width="5"/>
<rect x="32.2073" y="114.011" width="139.293" height="112.021" rx="17.5" fill="white" stroke="black" stroke-width="5"/>
<path d="M96.5943 159.939C96.5943 162.073 96.161 163.539 95.2943 164.339C94.4276 165.106 92.8943 165.489 90.6943 165.489H76.6443C74.011 165.489 72.361 164.923 71.6943 163.789C71.2943 163.056 71.0943 161.239 71.0943 158.339L75.1943 157.389V161.939H90.0943C91.0943 161.939 91.7276 161.789 91.9943 161.489C92.261 161.156 92.3943 160.539 92.3943 159.639V156.189C92.3943 155.356 92.261 154.756 91.9943 154.389C91.761 154.023 91.1276 153.839 90.0943 153.839H80.9443V150.539H89.1443C90.3776 150.539 91.111 150.089 91.3443 149.189C91.411 148.989 91.4443 147.956 91.4443 146.089C91.4443 144.989 91.3276 144.256 91.0943 143.889C90.7943 143.389 90.1443 143.139 89.1443 143.139H75.3443V147.139L71.4443 146.339V144.739C71.4443 142.706 71.8443 141.356 72.6443 140.689C73.4443 140.023 74.8943 139.689 76.9943 139.689H90.0943C92.761 139.689 94.4276 140.289 95.0943 141.489C95.461 142.189 95.6443 144.056 95.6443 147.089C95.6443 148.556 95.3443 149.673 94.7443 150.439C94.1776 151.173 93.1776 151.689 91.7443 151.989C94.9776 152.456 96.5943 154.206 96.5943 157.239V159.939ZM135.097 150.439C135.097 152.239 134.647 153.523 133.747 154.289C132.88 155.056 131.513 155.439 129.647 155.439H113.147V165.489H108.847V139.689H129.647C131.513 139.689 132.88 140.073 133.747 140.839C134.647 141.606 135.097 142.889 135.097 144.689V150.439ZM130.747 149.339V145.739C130.747 144.706 130.53 144.006 130.097 143.639C129.697 143.239 128.98 143.039 127.947 143.039H113.147V152.039H127.947C128.98 152.039 129.697 151.856 130.097 151.489C130.53 151.089 130.747 150.373 130.747 149.339Z" fill="black"/>
<line x1="60.4897" y1="196.17" x2="147.065" y2="196.17" stroke="black" stroke-width="2"/>
<line x1="60.4897" y1="200.851" x2="147.065" y2="200.851" stroke="black" stroke-width="2"/>
<path d="M83.7242 79.6442C83.7242 83.4309 83.0576 86.0176 81.7242 87.4042C80.3909 88.7376 77.8576 89.4042 74.1242 89.4042H64.9242V99.8042H60.1242V89.4042H49.8842C45.8842 89.4042 43.2442 88.6309 41.9642 87.0842C40.7909 85.7509 40.2042 83.0576 40.2042 79.0042L46.9242 77.6442V84.4442H60.1242V71.5642H51.4042C47.6709 71.5642 45.1109 70.8709 43.7242 69.4842C42.3909 68.0442 41.7242 65.4576 41.7242 61.7242V57.8842C41.7242 54.0976 42.3909 51.5376 43.7242 50.2042C45.1109 48.8176 47.6709 48.1242 51.4042 48.1242H60.1242V39.9642H64.9242V48.1242H73.4042C76.6576 48.1242 79.0309 48.6309 80.5242 49.6442C82.2309 50.8709 83.0842 53.0576 83.0842 56.2042V58.0442L76.8442 59.5642V53.1642H64.9242V65.7242H74.1242C77.9109 65.7242 80.4442 66.4176 81.7242 67.8042C83.0576 69.1376 83.7242 71.6976 83.7242 75.4842V79.6442ZM60.1242 65.7242V53.1642H48.0442V65.7242H60.1242ZM77.4042 84.4442V71.5642H64.9242V84.4442H77.4042Z" fill="black"/>
<line y1="-3.5" x2="270.354" y2="-3.5" transform="matrix(0.380666 0.924713 -0.92399 0.382417 29.7073 3)" stroke="black" stroke-width="7"/>
</svg>
