<svg width="186" height="233" viewBox="0 0 186 233" fill="none" xmlns="http://www.w3.org/2000/svg">
<rect x="38" y="10" width="110" height="73" rx="10" stroke="#A6413C" stroke-width="20"/>
<rect y="65" width="186" height="168" rx="20" fill="#A6413C"/>
<circle cx="92" cy="136" r="28" fill="white"/>
<path d="M92.5 136L120.646 185.5H64.3542L92.5 136Z" fill="white"/>
<path d="M104.633 132.96C104.633 134.4 104.273 135.427 103.553 136.04C102.86 136.653 101.767 136.96 100.273 136.96H87.0734V145H83.6334V124.36H100.273C101.767 124.36 102.86 124.667 103.553 125.28C104.273 125.893 104.633 126.92 104.633 128.36V132.96ZM101.153 132.08V129.2C101.153 128.373 100.98 127.813 100.633 127.52C100.313 127.2 99.7401 127.04 98.9134 127.04H87.0734V134.24H98.9134C99.7401 134.24 100.313 134.093 100.633 133.8C100.98 133.48 101.153 132.907 101.153 132.08Z" fill="#A6413C"/>
</svg>
