<svg width="129" height="250" viewBox="0 0 129 250" fill="none" xmlns="http://www.w3.org/2000/svg">
<rect x="11" width="104" height="131" rx="15" fill="#6E33A6"/>
<circle cx="65.5" cy="42.5" r="27.5" fill="white"/>
<path d="M77.6334 41.96C77.6334 43.4 77.2734 44.4267 76.5534 45.04C75.8601 45.6533 74.7668 45.96 73.2734 45.96H60.0734V54H56.6334V33.36H73.2734C74.7668 33.36 75.8601 33.6667 76.5534 34.28C77.2734 34.8933 77.6334 35.92 77.6334 37.36V41.96ZM74.1534 41.08V38.2C74.1534 37.3733 73.9801 36.8133 73.6334 36.52C73.3134 36.2 72.7401 36.04 71.9134 36.04H60.0734V43.24H71.9134C72.7401 43.24 73.3134 43.0933 73.6334 42.8C73.9801 42.48 74.1534 41.9067 74.1534 41.08Z" fill="#6E33A6"/>
<circle cx="64.5" cy="136.5" r="64.5" fill="#6E33A6"/>
<path fill-rule="evenodd" clip-rule="evenodd" d="M112.932 133.676C103.734 116.423 85.5603 104.68 64.6436 104.68C43.7154 104.68 25.533 116.436 16.34 133.705L49.0982 144.003C51.9142 138.611 57.5583 134.932 64.0618 134.932C70.6603 134.932 76.3741 138.72 79.147 144.24H79.3284L112.932 133.676Z" fill="white"/>
<circle cx="64.5" cy="149.5" r="4.5" fill="white"/>
<line x1="64" y1="200" x2="64" y2="250" stroke="#6E33A6" stroke-width="10"/>
</svg>
