<svg width="276" height="276" viewBox="0 0 276 276" fill="none" xmlns="http://www.w3.org/2000/svg">
<path fill-rule="evenodd" clip-rule="evenodd" d="M161.335 161.335C191.014 131.655 191.014 83.5341 161.335 53.8543C131.655 24.1745 83.5342 24.1745 53.8543 53.8543C24.1745 83.5341 24.1745 131.655 53.8543 161.335C83.5342 191.014 131.655 191.014 161.335 161.335ZM144.718 145.425C165.22 124.922 165.22 91.6809 144.718 71.1784C124.215 50.6759 90.9738 50.6759 70.4713 71.1784C49.9688 91.6809 49.9688 124.922 70.4713 145.425C90.9738 165.927 124.215 165.927 144.718 145.425Z" fill="#6E33A6"/>
<rect x="139.414" y="160.627" width="27.9011" height="102" rx="13.9506" transform="rotate(-45 139.414 160.627)" fill="#6E33A6"/>
</svg>
