<svg width="276" height="276" viewBox="0 0 276 276" fill="none" xmlns="http://www.w3.org/2000/svg">
<path fill-rule="evenodd" clip-rule="evenodd" d="M161.22 161.22C190.9 131.54 190.9 83.42 161.22 53.7401C131.541 24.0603 83.42 24.0603 53.7401 53.7401C24.0603 83.42 24.0603 131.54 53.7401 161.22C83.42 190.9 131.541 190.9 161.22 161.22ZM144.603 145.31C165.106 124.808 165.106 91.5667 144.603 71.0642C124.101 50.5617 90.8596 50.5617 70.3571 71.0642C49.8546 91.5667 49.8546 124.808 70.3571 145.31C90.8596 165.813 124.101 165.813 144.603 145.31Z" fill="white"/>
<rect x="139.3" y="160.513" width="27.9011" height="102" rx="13.9506" transform="rotate(-45 139.3 160.513)" fill="white"/>
</svg>
