<svg width="191" height="191" viewBox="0 0 191 191" fill="none" xmlns="http://www.w3.org/2000/svg">
<path d="M191 108.361V82.6393C177.861 77.9678 169.56 76.6547 165.382 66.5715V66.5635C161.188 56.4485 166.178 49.5804 172.123 37.062L153.938 18.8772C141.515 24.7823 134.575 29.8199 124.436 25.6179H124.429C114.329 21.4318 113.008 13.0755 108.361 0H82.6393C78.0076 13.0119 76.6785 21.4238 66.5715 25.6179H66.5635C56.4485 29.8199 49.5963 24.838 37.062 18.8772L18.8772 37.062C24.8061 49.5406 29.8199 56.4325 25.6179 66.5635C21.4238 76.6785 13.0119 78.0076 0 82.6393V108.361C12.988 112.977 21.4238 114.321 25.6179 124.429C29.8358 134.631 24.7106 141.666 18.8772 153.93L37.062 172.123C49.4929 166.21 56.4325 161.18 66.5635 165.382H66.5715C76.6785 169.568 77.9996 177.948 82.6393 191H108.361C112.992 177.98 114.329 169.592 124.492 165.358H124.5C134.544 161.188 141.372 166.162 153.93 172.131L172.115 153.938C166.194 141.499 161.172 134.575 165.366 124.444C169.56 114.329 178.004 112.984 191 108.361V108.361ZM95.5 127.333C77.92 127.333 63.6667 113.08 63.6667 95.5C63.6667 77.92 77.92 63.6667 95.5 63.6667C113.08 63.6667 127.333 77.92 127.333 95.5C127.333 113.08 113.08 127.333 95.5 127.333Z" fill="white"/>
</svg>
