<svg width="150" height="150" viewBox="0 0 150 150" fill="none" xmlns="http://www.w3.org/2000/svg">
<circle cx="75" cy="75" r="70" stroke="#F61000" stroke-width="10"/>
<path d="M121.43 63.18L120.34 67.54C120.222 68.0123 119.949 68.4313 119.564 68.7303C119.18 69.0294 118.707 69.1912 118.22 69.19H114.59C115.843 70.272 116.848 71.6105 117.538 73.115C118.228 74.6195 118.587 76.2548 118.59 77.91V86.63C118.581 89.4397 117.546 92.1494 115.68 94.25V104.07C115.68 104.833 115.53 105.588 115.238 106.293C114.946 106.998 114.518 107.639 113.978 108.178C113.439 108.718 112.798 109.146 112.093 109.438C111.388 109.73 110.633 109.88 109.87 109.88H104.06C102.519 109.88 101.041 109.268 99.9517 108.178C98.8621 107.089 98.25 105.611 98.25 104.07V98.25H51.75V104.06C51.75 104.823 51.5997 105.578 51.3077 106.283C51.0157 106.988 50.5878 107.629 50.0483 108.168C49.5088 108.708 48.8683 109.136 48.1634 109.428C47.4585 109.72 46.703 109.87 45.94 109.87H40.12C38.5791 109.87 37.1013 109.258 36.0117 108.168C34.9221 107.079 34.31 105.601 34.31 104.06V94.24C32.447 92.1415 31.4125 89.4361 31.4 86.63V77.91C31.4023 76.2547 31.7607 74.6192 32.4509 73.1146C33.1411 71.61 34.1469 70.2715 35.4 69.19H31.77C31.2848 69.189 30.8139 69.0261 30.4317 68.7273C30.0495 68.4284 29.7779 68.0106 29.66 67.54L28.57 63.18C28.4895 62.8589 28.4832 62.5237 28.5516 62.1998C28.6199 61.876 28.7611 61.5719 28.9645 61.3107C29.1678 61.0495 29.428 60.8381 29.7252 60.6924C30.0225 60.5468 30.349 60.4707 30.68 60.47H41.55L44.55 52.91C46.0503 49.1238 48.6574 45.8779 52.0308 43.5962C55.4043 41.3145 59.3874 40.1031 63.46 40.12H86.53C90.5995 40.1057 94.5788 41.3185 97.9486 43.6001C101.318 45.8817 103.922 49.1262 105.42 52.91L108.42 60.47H119.32C119.651 60.4707 119.978 60.5468 120.275 60.6924C120.572 60.8381 120.832 61.0495 121.035 61.3107C121.239 61.5719 121.38 61.876 121.448 62.1998C121.517 62.5237 121.51 62.8589 121.43 63.18ZM54.65 83.69C54.65 80.21 49.42 75 45.93 75C45.1562 74.952 44.3811 75.0687 43.6558 75.3424C42.9305 75.6161 42.2715 76.0406 41.7223 76.5878C41.1732 77.1351 40.7465 77.7926 40.4702 78.517C40.194 79.2413 40.0746 80.0161 40.12 80.79C40.0746 81.5639 40.194 82.3386 40.4702 83.063C40.7465 83.7874 41.1732 84.4449 41.7223 84.9921C42.2715 85.5394 42.9305 85.9639 43.6558 86.2376C44.3811 86.5113 45.1562 86.628 45.93 86.58C49.42 86.59 54.65 87.17 54.65 83.69ZM51.75 66.28H98.25L94.63 57.23C93.9829 55.6131 92.8665 54.2271 91.4247 53.2504C89.9828 52.2737 88.2815 51.7511 86.54 51.75H63.46C61.7185 51.7511 60.0172 52.2737 58.5753 53.2504C57.1335 54.2271 56.0171 55.6131 55.37 57.23L51.75 66.28ZM109.87 80.79C109.915 80.0161 109.796 79.2413 109.52 78.517C109.244 77.7926 108.817 77.1351 108.268 76.5878C107.718 76.0406 107.06 75.6161 106.334 75.3424C105.609 75.0687 104.834 74.952 104.06 75C100.57 75 95.34 80.21 95.34 83.69C95.34 87.17 100.57 86.58 104.06 86.58C104.834 86.628 105.609 86.5113 106.334 86.2376C107.06 85.9639 107.718 85.5394 108.268 84.9921C108.817 84.4449 109.244 83.7874 109.52 83.063C109.796 82.3386 109.915 81.5639 109.87 80.79Z" fill="black"/>
<line x1="23.5179" y1="21.4469" x2="124.518" y2="121.447" stroke="#F61000" stroke-width="10"/>
</svg>
