<svg width="150" height="250" viewBox="0 0 150 250" fill="none" xmlns="http://www.w3.org/2000/svg">
<rect x="2.5" y="2.5" width="145" height="245" rx="17.5" fill="#FC6825" stroke="#FC6825" stroke-width="5"/>
<path d="M68.6888 73.34C68.6888 75.9 68.1688 77.66 67.1288 78.62C66.0888 79.54 64.2488 80 61.6088 80H44.7488C41.5888 80 39.6088 79.32 38.8088 77.96C38.3288 77.08 38.0888 74.9 38.0888 71.42L43.0088 70.28V75.74H60.8888C62.0888 75.74 62.8488 75.56 63.1688 75.2C63.4888 74.8 63.6488 74.06 63.6488 72.98V68.84C63.6488 67.84 63.4888 67.12 63.1688 66.68C62.8888 66.24 62.1288 66.02 60.8888 66.02H49.9088V62.06H59.7488C61.2288 62.06 62.1088 61.52 62.3888 60.44C62.4688 60.2 62.5088 58.96 62.5088 56.72C62.5088 55.4 62.3688 54.52 62.0888 54.08C61.7288 53.48 60.9488 53.18 59.7488 53.18H43.1888V57.98L38.5088 57.02V55.1C38.5088 52.66 38.9888 51.04 39.9488 50.24C40.9088 49.44 42.6488 49.04 45.1688 49.04H60.8888C64.0888 49.04 66.0888 49.76 66.8888 51.2C67.3288 52.04 67.5488 54.28 67.5488 57.92C67.5488 59.68 67.1888 61.02 66.4688 61.94C65.7888 62.82 64.5888 63.44 62.8688 63.8C66.7488 64.36 68.6888 66.46 68.6888 70.1V73.34ZM114.892 61.94C114.892 64.1 114.352 65.64 113.272 66.56C112.232 67.48 110.592 67.94 108.352 67.94H88.5516V80H83.3916V49.04H108.352C110.592 49.04 112.232 49.5 113.272 50.42C114.352 51.34 114.892 52.88 114.892 55.04V61.94ZM109.672 60.62V56.3C109.672 55.06 109.412 54.22 108.892 53.78C108.412 53.3 107.552 53.06 106.312 53.06H88.5516V63.86H106.312C107.552 63.86 108.412 63.64 108.892 63.2C109.412 62.72 109.672 61.86 109.672 60.62Z" fill="white"/>
<line x1="32" y1="129.5" x2="122" y2="129.5" stroke="white" stroke-width="3"/>
<line x1="32" y1="139.5" x2="122" y2="139.5" stroke="white" stroke-width="3"/>
<line x1="32" y1="182" x2="122" y2="182" stroke="white" stroke-width="2"/>
<line x1="32" y1="192" x2="122" y2="192" stroke="white" stroke-width="2"/>
</svg>
